<svg xmlns="http://www.w3.org/2000/svg" xmlns:xlink="http://www.w3.org/1999/xlink" width="512" height="512" viewBox="0 0 512 512">
  <defs>
    <clipPath id="clip-Arc_Gauge">
      <rect width="512" height="512"/>
    </clipPath>
  </defs>
  <g id="Arc_Gauge" data-name="Arc &amp; Gauge" clip-path="url(#clip-Arc_Gauge)">
    <rect id="Rectangle_18" data-name="Rectangle 18" width="512" height="512" rx="45" fill="#082233"/>
    <path id="Subtraction_24" data-name="Subtraction 24" d="M-536.324-2179.191h0a151.133,151.133,0,0,1-18.057-21.94,150.056,150.056,0,0,1-13.829-25.479,149.274,149.274,0,0,1-8.741-28.156A151.163,151.163,0,0,1-580-2285h75a74.539,74.539,0,0,0,5.894,29.194,75.028,75.028,0,0,0,6.916,12.74,75.61,75.61,0,0,0,8.591,10.527l-52.724,53.347Z" transform="translate(-174.099 -1992.691) rotate(180)" fill="#244b64"/>
    <path id="Intersection_13" data-name="Intersection 13" d="M-355-1465.5h0a74.538,74.538,0,0,0-5.894-29.193,75.016,75.016,0,0,0-6.916-12.74,75.552,75.552,0,0,0-9.158-11.1,75.567,75.567,0,0,0-11.1-9.158,75.064,75.064,0,0,0-12.74-6.915A74.537,74.537,0,0,0-430-1540.5v-75a151.093,151.093,0,0,1,30.23,3.047,149.2,149.2,0,0,1,28.156,8.741,150.027,150.027,0,0,1,25.48,13.829,151.089,151.089,0,0,1,22.2,18.317,151.046,151.046,0,0,1,18.317,22.2,150.048,150.048,0,0,1,13.829,25.479,149.272,149.272,0,0,1,8.741,28.156A151.162,151.162,0,0,1-280-1465.5h-75Z" transform="translate(1722 -136.5) rotate(-90)" fill="#650306"/>
    <path id="Subtraction_23" data-name="Subtraction 23" d="M-524.055-2187.681h0A75.565,75.565,0,0,0-535-2196.717a74.978,74.978,0,0,0-12.727-6.928,74.288,74.288,0,0,0-29.165-5.9v-75.142a150.492,150.492,0,0,1,30.2,3.054,148.749,148.749,0,0,1,28.129,8.757,149.785,149.785,0,0,1,25.455,13.856,151.077,151.077,0,0,1,21.521,17.7c-19.211,19.735-36.862,37.784-52.465,53.647Z" transform="translate(833.564 2428.112)" fill="#96823c"/>
    <path id="Path_60" data-name="Path 60" d="M778.89,2476.427l39.027,106.959s9.26,5.357,14.438,3.02,6.273-12.371,6.273-12.371Z" transform="translate(-570.866 -2300.662)" fill="#707070" stroke="#707070" stroke-width="1"/>
  </g>
</svg>
