<svg xmlns="http://www.w3.org/2000/svg" xmlns:xlink="http://www.w3.org/1999/xlink" width="512" height="512" viewBox="0 0 512 512">
  <defs>
    <clipPath id="clip-Donut">
      <rect width="512" height="512"/>
    </clipPath>
  </defs>
  <g id="Donut" clip-path="url(#clip-Donut)">
    <rect id="Rectangle_18" data-name="Rectangle 18" width="512" height="512" rx="45" fill="#082233"/>
    <path id="Intersection_10" data-name="Intersection 10" d="M-355-1465.5h0a74.538,74.538,0,0,0-5.894-29.193,75.016,75.016,0,0,0-6.916-12.74,75.552,75.552,0,0,0-9.158-11.1,75.567,75.567,0,0,0-11.1-9.158,75.064,75.064,0,0,0-12.74-6.915A74.537,74.537,0,0,0-430-1540.5v-75a151.093,151.093,0,0,1,30.23,3.047,149.2,149.2,0,0,1,28.156,8.741,150.027,150.027,0,0,1,25.48,13.829,151.089,151.089,0,0,1,22.2,18.317,151.046,151.046,0,0,1,18.317,22.2,150.048,150.048,0,0,1,13.829,25.479,149.272,149.272,0,0,1,8.741,28.156A151.162,151.162,0,0,1-280-1465.5h-75Z" transform="translate(686.5 1722)" fill="#96823c"/>
    <path id="Intersection_11" data-name="Intersection 11" d="M-355-1465.5h0a74.538,74.538,0,0,0-5.894-29.193,75.016,75.016,0,0,0-6.916-12.74,75.552,75.552,0,0,0-9.158-11.1,75.567,75.567,0,0,0-11.1-9.158,75.064,75.064,0,0,0-12.74-6.915A74.537,74.537,0,0,0-430-1540.5v-75a151.093,151.093,0,0,1,30.23,3.047,149.2,149.2,0,0,1,28.156,8.741,150.027,150.027,0,0,1,25.48,13.829,151.089,151.089,0,0,1,22.2,18.317,151.046,151.046,0,0,1,18.317,22.2,150.048,150.048,0,0,1,13.829,25.479,149.272,149.272,0,0,1,8.741,28.156A151.162,151.162,0,0,1-280-1465.5h-75Z" transform="translate(-1209 686.5) rotate(90)" fill="#98553a"/>
    <path id="Intersection_12" data-name="Intersection 12" d="M-355-1465.5h0a74.538,74.538,0,0,0-5.894-29.193,75.016,75.016,0,0,0-6.916-12.74,75.552,75.552,0,0,0-9.158-11.1,75.567,75.567,0,0,0-11.1-9.158,75.064,75.064,0,0,0-12.74-6.915A74.537,74.537,0,0,0-430-1540.5v-75a151.093,151.093,0,0,1,30.23,3.047,149.2,149.2,0,0,1,28.156,8.741,150.027,150.027,0,0,1,25.48,13.829,151.089,151.089,0,0,1,22.2,18.317,151.046,151.046,0,0,1,18.317,22.2,150.048,150.048,0,0,1,13.829,25.479,149.272,149.272,0,0,1,8.741,28.156A151.162,151.162,0,0,1-280-1465.5h-75Z" transform="translate(-173.5 -1209) rotate(180)" fill="#244b64"/>
    <path id="Intersection_13" data-name="Intersection 13" d="M-355-1465.5h0a74.538,74.538,0,0,0-5.894-29.193,75.016,75.016,0,0,0-6.916-12.74,75.552,75.552,0,0,0-9.158-11.1,75.567,75.567,0,0,0-11.1-9.158,75.064,75.064,0,0,0-12.74-6.915A74.537,74.537,0,0,0-430-1540.5v-75a151.093,151.093,0,0,1,30.23,3.047,149.2,149.2,0,0,1,28.156,8.741,150.027,150.027,0,0,1,25.48,13.829,151.089,151.089,0,0,1,22.2,18.317,151.046,151.046,0,0,1,18.317,22.2,150.048,150.048,0,0,1,13.829,25.479,149.272,149.272,0,0,1,8.741,28.156A151.162,151.162,0,0,1-280-1465.5h-75Z" transform="translate(1722 -173.5) rotate(-90)" fill="#650306"/>
  </g>
</svg>
