<svg xmlns="http://www.w3.org/2000/svg" xmlns:xlink="http://www.w3.org/1999/xlink" width="512" height="512" viewBox="0 0 512 512">
  <defs>
    <clipPath id="clip-Grouped_Stacked_Bar">
      <rect width="512" height="512"/>
    </clipPath>
  </defs>
  <g id="Grouped_Stacked_Bar" data-name="Grouped Stacked Bar" clip-path="url(#clip-Grouped_Stacked_Bar)">
    <rect id="Rectangle_18" data-name="Rectangle 18" width="512" height="512" rx="45" fill="#082233"/>
    <rect id="Rectangle_19" data-name="Rectangle 19" width="60" height="111" transform="translate(272 349)" fill="#96823c"/>
    <rect id="Rectangle_20" data-name="Rectangle 20" width="60" height="32" transform="translate(272 317)" fill="#244b64"/>
    <rect id="Rectangle_21" data-name="Rectangle 21" width="60" height="80" transform="translate(272 237)" fill="#76351f"/>
    <rect id="Rectangle_22" data-name="Rectangle 22" width="60" height="186" transform="translate(272 51)" fill="#98553a"/>
    <rect id="Rectangle_61" data-name="Rectangle 61" width="60" height="31" transform="translate(363 429)" fill="#96823c"/>
    <rect id="Rectangle_62" data-name="Rectangle 62" width="60" height="103" transform="translate(363 326)" fill="#244b64"/>
    <rect id="Rectangle_63" data-name="Rectangle 63" width="60" height="128" transform="translate(363 197)" fill="#76351f"/>
    <rect id="Rectangle_64" data-name="Rectangle 64" width="60" height="146" transform="translate(363 51)" fill="#98553a"/>
    <rect id="Rectangle_65" data-name="Rectangle 65" width="60" height="41" transform="translate(90 420)" fill="#96823c"/>
    <rect id="Rectangle_66" data-name="Rectangle 66" width="60" height="95" transform="translate(90 325)" fill="#244b64"/>
    <rect id="Rectangle_67" data-name="Rectangle 67" width="60" height="212" transform="translate(90 114)" fill="#76351f"/>
    <rect id="Rectangle_68" data-name="Rectangle 68" width="60" height="62" transform="translate(90 52)" fill="#98553a"/>
    <rect id="Rectangle_69" data-name="Rectangle 69" width="60" height="81" transform="translate(181 380)" fill="#96823c"/>
    <rect id="Rectangle_70" data-name="Rectangle 70" width="60" height="57" transform="translate(181 325)" fill="#244b64"/>
    <rect id="Rectangle_71" data-name="Rectangle 71" width="60" height="128" transform="translate(181 197)" fill="#76351f"/>
    <rect id="Rectangle_72" data-name="Rectangle 72" width="60" height="146" transform="translate(181 51)" fill="#98553a"/>
  </g>
</svg>
