<svg xmlns="http://www.w3.org/2000/svg" xmlns:xlink="http://www.w3.org/1999/xlink" width="512" height="512" viewBox="0 0 512 512">
  <defs>
    <clipPath id="clip-HeatMap">
      <rect width="512" height="512"/>
    </clipPath>
  </defs>
  <g id="HeatMap" clip-path="url(#clip-HeatMap)">
    <rect id="Rectangle_18" data-name="Rectangle 18" width="512" height="512" rx="45" fill="#082233"/>
    <rect id="Rectangle_30" data-name="Rectangle 30" width="71" height="74" transform="translate(149 47)" fill="#4f3d0d"/>
    <rect id="Rectangle_32" data-name="Rectangle 32" width="71" height="74" transform="translate(392 47)" fill="#4f3d0d"/>
    <rect id="Rectangle_33" data-name="Rectangle 33" width="71" height="74" transform="translate(68 47)" fill="#2f2508"/>
    <rect id="Rectangle_35" data-name="Rectangle 35" width="71" height="74" transform="translate(230 47)" fill="#987519"/>
    <rect id="Rectangle_36" data-name="Rectangle 36" width="71" height="74" transform="translate(311 47)" fill="#987519"/>
    <rect id="Rectangle_37" data-name="Rectangle 37" width="71" height="74" transform="translate(149 131)" fill="#4f3d0d"/>
    <rect id="Rectangle_38" data-name="Rectangle 38" width="71" height="74" transform="translate(392 131)" fill="#4f3d0d"/>
    <rect id="Rectangle_39" data-name="Rectangle 39" width="71" height="74" transform="translate(68 131)" fill="#2f2508"/>
    <rect id="Rectangle_40" data-name="Rectangle 40" width="71" height="74" transform="translate(230 131)" fill="#987519"/>
    <rect id="Rectangle_41" data-name="Rectangle 41" width="71" height="74" transform="translate(311 131)" fill="#987519"/>
    <rect id="Rectangle_42" data-name="Rectangle 42" width="71" height="74" transform="translate(149 215)" fill="#4f3d0d"/>
    <rect id="Rectangle_43" data-name="Rectangle 43" width="71" height="74" transform="translate(392 215)" fill="#987519"/>
    <rect id="Rectangle_44" data-name="Rectangle 44" width="71" height="74" transform="translate(68 215)" fill="#4f3d0d"/>
    <rect id="Rectangle_45" data-name="Rectangle 45" width="71" height="74" transform="translate(230 215)" fill="#987519"/>
    <rect id="Rectangle_46" data-name="Rectangle 46" width="71" height="74" transform="translate(311 215)" fill="#4f3d0d"/>
    <rect id="Rectangle_47" data-name="Rectangle 47" width="71" height="74" transform="translate(149 299)" fill="#987519"/>
    <rect id="Rectangle_48" data-name="Rectangle 48" width="71" height="74" transform="translate(392 299)" fill="#4f3d0d"/>
    <rect id="Rectangle_49" data-name="Rectangle 49" width="71" height="74" transform="translate(68 299)" fill="#4f3d0d"/>
    <rect id="Rectangle_50" data-name="Rectangle 50" width="71" height="74" transform="translate(230 299)" fill="#4f3d0d"/>
    <rect id="Rectangle_51" data-name="Rectangle 51" width="71" height="74" transform="translate(311 299)" fill="#4f3d0d"/>
    <rect id="Rectangle_52" data-name="Rectangle 52" width="71" height="74" transform="translate(149 383)" fill="#4f3d0d"/>
    <rect id="Rectangle_53" data-name="Rectangle 53" width="71" height="74" transform="translate(392 383)" fill="#4f3d0d"/>
    <rect id="Rectangle_54" data-name="Rectangle 54" width="71" height="74" transform="translate(68 383)" fill="#987519"/>
    <rect id="Rectangle_55" data-name="Rectangle 55" width="71" height="74" transform="translate(230 383)" fill="#4f3d0d"/>
    <rect id="Rectangle_56" data-name="Rectangle 56" width="71" height="74" transform="translate(311 383)" fill="#2f2508"/>
  </g>
</svg>
