<svg xmlns="http://www.w3.org/2000/svg" xmlns:xlink="http://www.w3.org/1999/xlink" width="512" height="512" viewBox="0 0 512 512">
  <defs>
    <linearGradient id="linear-gradient" x1="0.5" x2="0.5" y2="1" gradientUnits="objectBoundingBox">
      <stop offset="0" stop-color="#8e8e8e"/>
      <stop offset="1" stop-color="#474747" stop-opacity="0.271"/>
    </linearGradient>
    <clipPath id="clip-Pan_Zoom_Bar">
      <rect width="512" height="512"/>
    </clipPath>
  </defs>
  <g id="Pan_Zoom_Bar" data-name="Pan &amp; Zoom Bar" clip-path="url(#clip-Pan_Zoom_Bar)">
    <rect id="Rectangle_18" data-name="Rectangle 18" width="512" height="512" rx="45" fill="#082233"/>
    <line id="Line_1" data-name="Line 1" y2="195.246" transform="translate(78.5 70.254)" fill="none" stroke="#707070" stroke-width="5"/>
    <line id="Line_2" data-name="Line 2" x1="371" transform="translate(76.5 265.5)" fill="none" stroke="#707070" stroke-width="5"/>
    <line id="Line_10" data-name="Line 10" y2="61.439" transform="translate(80.5 399.061)" fill="none" stroke="#707070" stroke-width="5"/>
    <line id="Line_11" data-name="Line 11" x1="371" transform="translate(78.5 460.5)" fill="none" stroke="#707070" stroke-width="5"/>
    <rect id="Rectangle_99" data-name="Rectangle 99" width="60" height="58" transform="translate(108 205)" fill="#98553a"/>
    <rect id="Rectangle_100" data-name="Rectangle 100" width="60" height="81" transform="translate(187 182)" fill="#98553a"/>
    <rect id="Rectangle_101" data-name="Rectangle 101" width="60" height="108" transform="translate(266 155)" fill="#98553a"/>
    <rect id="Rectangle_102" data-name="Rectangle 102" width="60" height="146" transform="translate(345 117)" fill="#98553a"/>
    <rect id="Rectangle_103" data-name="Rectangle 103" width="15" height="20.46" transform="translate(236 437.54)" fill="url(#linear-gradient)"/>
    <rect id="Rectangle_104" data-name="Rectangle 104" width="15" height="28.574" transform="translate(257 429.426)" fill="url(#linear-gradient)"/>
    <rect id="Rectangle_105" data-name="Rectangle 105" width="15" height="38.099" transform="translate(278 419.901)" fill="url(#linear-gradient)"/>
    <rect id="Rectangle_106" data-name="Rectangle 106" width="15" height="51.504" transform="translate(299 406.496)" fill="url(#linear-gradient)"/>
    <rect id="Rectangle_107" data-name="Rectangle 107" width="15" height="59.46" transform="translate(320 398.54)" fill="url(#linear-gradient)"/>
    <rect id="Rectangle_108" data-name="Rectangle 108" width="15" height="67.574" transform="translate(341 390.426)" fill="url(#linear-gradient)"/>
    <rect id="Rectangle_109" data-name="Rectangle 109" width="15" height="75.099" transform="translate(362 382.901)" fill="url(#linear-gradient)"/>
    <rect id="Rectangle_110" data-name="Rectangle 110" width="15" height="81.504" transform="translate(383 376.496)" fill="url(#linear-gradient)"/>
    <rect id="Rectangle_111" data-name="Rectangle 111" width="15" height="20.46" transform="translate(152 437.54)" fill="url(#linear-gradient)"/>
    <rect id="Rectangle_112" data-name="Rectangle 112" width="15" height="28.574" transform="translate(173 429.426)" fill="url(#linear-gradient)"/>
    <rect id="Rectangle_113" data-name="Rectangle 113" width="15" height="23.099" transform="translate(194 434.901)" fill="url(#linear-gradient)"/>
    <rect id="Rectangle_114" data-name="Rectangle 114" width="15" height="16.504" transform="translate(215 441.496)" fill="url(#linear-gradient)"/>
    <g id="Rectangle_73" data-name="Rectangle 73" transform="translate(229 399)" fill="none" stroke="rgba(190,186,186,0.99)" stroke-width="3" stroke-dasharray="5">
      <rect width="94" height="81" stroke="none"/>
      <rect x="1.5" y="1.5" width="91" height="78" fill="none"/>
    </g>
    <rect id="Rectangle_116" data-name="Rectangle 116" width="15" height="28.574" transform="translate(89 429.426)" fill="url(#linear-gradient)"/>
    <rect id="Rectangle_117" data-name="Rectangle 117" width="15" height="23.099" transform="translate(110 434.901)" fill="url(#linear-gradient)"/>
    <rect id="Rectangle_118" data-name="Rectangle 118" width="15" height="16.504" transform="translate(131 441.496)" fill="url(#linear-gradient)"/>
    <rect id="Rectangle_119" data-name="Rectangle 119" width="15" height="67.574" transform="translate(404 390.426)" fill="url(#linear-gradient)"/>
    <rect id="Rectangle_120" data-name="Rectangle 120" width="15" height="75.099" transform="translate(425 382.901)" fill="url(#linear-gradient)"/>
  </g>
</svg>
