<svg xmlns="http://www.w3.org/2000/svg" xmlns:xlink="http://www.w3.org/1999/xlink" width="512" height="512" viewBox="0 0 512 512">
  <defs>
    <clipPath id="clip-Pie">
      <rect width="512" height="512"/>
    </clipPath>
  </defs>
  <g id="Pie" clip-path="url(#clip-Pie)">
    <rect id="Rectangle_18" data-name="Rectangle 18" width="512" height="512" rx="45" fill="#082233"/>
    <path id="QuarterSlice" d="M-282.744-567.6h-130.5V-698.1a131.462,131.462,0,0,1,26.3,2.651,129.84,129.84,0,0,1,24.5,7.6,130.516,130.516,0,0,1,22.167,12.032,131.436,131.436,0,0,1,19.314,15.935,131.434,131.434,0,0,1,15.935,19.314A130.511,130.511,0,0,1-293-618.4a129.842,129.842,0,0,1,7.6,24.5,131.467,131.467,0,0,1,2.651,26.3Z" transform="translate(668.244 814.599)" fill="#244b64"/>
    <path id="Subtraction_4" data-name="Subtraction 4" d="M-449.5-457a131.458,131.458,0,0,1-26.3-2.651,129.792,129.792,0,0,1-24.5-7.6,130.514,130.514,0,0,1-22.167-12.031,131.54,131.54,0,0,1-19.314-15.935,131.48,131.48,0,0,1-15.935-19.314A130.634,130.634,0,0,1-569.745-536.7a129.853,129.853,0,0,1-7.6-24.5A131.455,131.455,0,0,1-580-587.5a131.437,131.437,0,0,1,2.651-26.3,129.826,129.826,0,0,1,7.6-24.5,130.6,130.6,0,0,1,12.032-22.167,131.477,131.477,0,0,1,15.935-19.314,131.432,131.432,0,0,1,19.314-15.935A130.469,130.469,0,0,1-500.3-707.745a129.85,129.85,0,0,1,24.5-7.6A131.453,131.453,0,0,1-449.5-718v130h.1l106.125,76.325a131.671,131.671,0,0,1-13.947,16.455,131.49,131.49,0,0,1-19.314,15.935A130.444,130.444,0,0,1-398.7-467.256a129.792,129.792,0,0,1-24.5,7.6A131.453,131.453,0,0,1-449.5-457Z" transform="translate(689.5 851.5)" fill="#96823c"/>
    <path id="Intersection_5" data-name="Intersection 5" d="M-449.4-588h88.944l41.457.029c0,.106,0,.21,0,.315v.157a131.52,131.52,0,0,1-2.651,26.3,129.878,129.878,0,0,1-7.6,24.5,130.51,130.51,0,0,1-12.032,22.167q-.86,1.273-1.752,2.528Z" transform="translate(720.5 847.5)" fill="#98553a"/>
  </g>
</svg>
