<svg xmlns="http://www.w3.org/2000/svg" xmlns:xlink="http://www.w3.org/1999/xlink" width="512" height="512" viewBox="0 0 512 512">
  <defs>
    <clipPath id="clip-Sunburst">
      <rect width="512" height="512"/>
    </clipPath>
  </defs>
  <g id="Sunburst" clip-path="url(#clip-Sunburst)">
    <rect id="Rectangle_18" data-name="Rectangle 18" width="512" height="512" rx="45" fill="#082233"/>
    <path id="Intersection_6" data-name="Intersection 6" d="M-3474-1505q0-.25,0-.5a113.359,113.359,0,0,1,2.285-22.673,112.017,112.017,0,0,1,6.556-21.117,112.478,112.478,0,0,1,10.372-19.11,113.328,113.328,0,0,1,13.738-16.65,113.382,113.382,0,0,1,16.65-13.738,112.591,112.591,0,0,1,19.11-10.373,111.975,111.975,0,0,1,21.117-6.555A113.323,113.323,0,0,1-3362-1618v15a98.213,98.213,0,0,0-19.15,1.98,96.981,96.981,0,0,0-18.3,5.681,97.54,97.54,0,0,0-16.563,8.99,98.2,98.2,0,0,0-14.429,11.905,98.2,98.2,0,0,0-11.906,14.43,97.577,97.577,0,0,0-8.989,16.562,97,97,0,0,0-5.681,18.3A98.189,98.189,0,0,0-3459-1505.5q0,.25,0,.5Z" transform="translate(3618 1761)" fill="#96823c"/>
    <path id="Intersection_7" data-name="Intersection 7" d="M-3474-1505.056q0-.25,0-.5a112.775,112.775,0,0,1,2.295-22.662,111.568,111.568,0,0,1,6.585-21.106,112.241,112.241,0,0,1,10.418-19.1,113.389,113.389,0,0,1,13.8-16.642,113.772,113.772,0,0,1,16.725-13.731,113.269,113.269,0,0,1,19.195-10.367,112.884,112.884,0,0,1,21.211-6.551A114.375,114.375,0,0,1-3361.5-1618v14.993a99.133,99.133,0,0,0-19.236,1.979,97.773,97.773,0,0,0-18.383,5.678,98.128,98.128,0,0,0-16.636,8.986,98.534,98.534,0,0,0-14.493,11.9,98.254,98.254,0,0,0-11.959,14.423,97.354,97.354,0,0,0-9.029,16.554,96.588,96.588,0,0,0-5.706,18.292,97.674,97.674,0,0,0-1.99,19.64q0,.25,0,.5Z" transform="translate(-1246.499 3617.001) rotate(90)" fill="#98553a"/>
    <path id="Intersection_8" data-name="Intersection 8" d="M-3474-1505.04q0-.25,0-.5a112.789,112.789,0,0,1,2.3-22.665,111.573,111.573,0,0,1,6.585-21.109,112.269,112.269,0,0,1,10.418-19.1,113.417,113.417,0,0,1,13.8-16.644,113.77,113.77,0,0,1,16.725-13.733,113.25,113.25,0,0,1,19.195-10.369,112.86,112.86,0,0,1,21.211-6.552A114.356,114.356,0,0,1-3361.5-1618v15a99.092,99.092,0,0,0-19.236,1.979,97.754,97.754,0,0,0-18.383,5.679,98.125,98.125,0,0,0-16.636,8.987,98.538,98.538,0,0,0-14.493,11.9,98.263,98.263,0,0,0-11.959,14.425,97.388,97.388,0,0,0-9.03,16.556,96.629,96.629,0,0,0-5.706,18.295,97.7,97.7,0,0,0-1.99,19.643q0,.25,0,.5Z" transform="translate(-3102.5 -1245.999) rotate(180)" fill="#244b64"/>
    <path id="Intersection_9" data-name="Intersection 9" d="M-3474-1505q0-.25,0-.5a113.359,113.359,0,0,1,2.285-22.673,112.017,112.017,0,0,1,6.556-21.117,112.478,112.478,0,0,1,10.372-19.11,113.328,113.328,0,0,1,13.738-16.65,113.382,113.382,0,0,1,16.65-13.738,112.591,112.591,0,0,1,19.11-10.373,111.975,111.975,0,0,1,21.117-6.555A113.323,113.323,0,0,1-3362-1618v15a98.213,98.213,0,0,0-19.15,1.98,96.981,96.981,0,0,0-18.3,5.681,97.54,97.54,0,0,0-16.563,8.99,98.2,98.2,0,0,0-14.429,11.905,98.2,98.2,0,0,0-11.906,14.43,97.577,97.577,0,0,0-8.989,16.562,97,97,0,0,0-5.681,18.3A98.189,98.189,0,0,0-3459-1505.5q0,.25,0,.5Z" transform="translate(1761.5 -3102.499) rotate(-90)" fill="#76351f"/>
    <path id="Intersection_14" data-name="Intersection 14" d="M-3474-1481.261q0-.3,0-.605a135.742,135.742,0,0,1,2.795-27.436,134.468,134.468,0,0,1,8.019-25.553,135.656,135.656,0,0,1,12.687-23.124,137.476,137.476,0,0,1,16.8-20.148,138.4,138.4,0,0,1,20.367-16.624,138.2,138.2,0,0,1,23.375-12.552,138.06,138.06,0,0,1,25.83-7.932A140.074,140.074,0,0,1-3337-1618v18.152a121.381,121.381,0,0,0-23.425,2.4,119.561,119.561,0,0,0-22.386,6.874,119.715,119.715,0,0,0-20.26,10.879,119.852,119.852,0,0,0-17.65,14.406,119.127,119.127,0,0,0-14.563,17.461,117.7,117.7,0,0,0-11,20.041,116.467,116.467,0,0,0-6.949,22.146,117.591,117.591,0,0,0-2.423,23.778q0,.3,0,.605Z" transform="translate(3593 1737.261)" fill="#96823c"/>
    <path id="Intersection_15" data-name="Intersection 15" d="M-3474-1480.5q0-.3,0-.609a138.354,138.354,0,0,1,2.771-27.589,136.657,136.657,0,0,1,7.951-25.7,137.02,137.02,0,0,1,12.58-23.253,137.785,137.785,0,0,1,16.662-20.26,137.647,137.647,0,0,1,20.2-16.716,136.433,136.433,0,0,1,23.178-12.621,135.508,135.508,0,0,1,25.613-7.976,137.02,137.02,0,0,1,26.9-2.78v18.253a118.756,118.756,0,0,0-23.228,2.409,117.355,117.355,0,0,0-22.2,6.912,118.192,118.192,0,0,0-20.089,10.939,119.185,119.185,0,0,0-17.5,14.486,119.409,119.409,0,0,0-14.441,17.558,118.838,118.838,0,0,0-10.9,20.153,118.3,118.3,0,0,0-6.89,22.27,119.863,119.863,0,0,0-2.4,23.91q0,.3,0,.609Z" transform="translate(1736.5 -3078.653) rotate(-90)" fill="#76351f"/>
    <path id="Intersection_16" data-name="Intersection 16" d="M-3474-1482.066q0-.3,0-.6a136.676,136.676,0,0,1,2.742-27.275,134.966,134.966,0,0,1,7.866-25.4,135.394,135.394,0,0,1,12.445-22.988,136.28,136.28,0,0,1,16.484-20.029,136.122,136.122,0,0,1,19.979-16.526,134.99,134.99,0,0,1,22.93-12.478,134.113,134.113,0,0,1,25.338-7.885,135.661,135.661,0,0,1,26.608-2.749v18.045a117.548,117.548,0,0,0-22.979,2.381,116.161,116.161,0,0,0-21.96,6.834,116.96,116.96,0,0,0-19.874,10.815,117.892,117.892,0,0,0-17.314,14.322,118.057,118.057,0,0,0-14.286,17.358,117.452,117.452,0,0,0-10.787,19.923,116.909,116.909,0,0,0-6.816,22.016,118.422,118.422,0,0,0-2.377,23.638c0,.2,0,.4,0,.6Z" transform="translate(-3080.606 -1222.566) rotate(180)" fill="#346d91"/>
    <path id="Intersection_18" data-name="Intersection 18" d="M-3371.007-1494.5a122.152,122.152,0,0,0-2.362-23.34,120.053,120.053,0,0,0-6.779-22.3,119.7,119.7,0,0,0-10.727-20.186,119.28,119.28,0,0,0-10.943-14.115l13.388-12.138a137.743,137.743,0,0,1,12.4,16.032,138.2,138.2,0,0,1,12.377,23.289,138.628,138.628,0,0,1,7.821,25.736,140.977,140.977,0,0,1,2.727,27.024Z" transform="translate(3746.5 1750.001)" fill="#c9714d"/>
    <path id="Intersection_21" data-name="Intersection 21" d="M-3350.306-1523.919a144.544,144.544,0,0,0-2.719-26.768,141.649,141.649,0,0,0-7.814-26.059,140.662,140.662,0,0,0-8.819-17.851l17.954-10.545a162.522,162.522,0,0,1,9.876,20.08,163.639,163.639,0,0,1,9.015,30.068,166.889,166.889,0,0,1,3.14,31.073Z" transform="translate(3746.5 1779.419)" fill="#e88359"/>
    <path id="Subtraction_19" data-name="Subtraction 19" d="M-3367.618-1523.246h0l-15.9-14a138.729,138.729,0,0,0,9.621-12.6,137.678,137.678,0,0,0,12.7-23.377,136.779,136.779,0,0,0,8.027-25.833,138.466,138.466,0,0,0,2.8-27.735q0-.354,0-.707h21.2q0,.147,0,.294v.076q0,.168,0,.337a159.781,159.781,0,0,1-3.229,32,157.9,157.9,0,0,1-9.264,29.806,158.7,158.7,0,0,1-14.656,26.974,160.374,160.374,0,0,1-11.3,14.763Z" transform="translate(3746 1887)" fill="#4289b5"/>
    <path id="Subtraction_22" data-name="Subtraction 22" d="M-3325.572-1542.391h0l-20.953-11.291c2.129-4.234,4.1-8.611,5.854-13.01a168.223,168.223,0,0,0,8.9-30.389,172.545,172.545,0,0,0,3.1-32.627q0-.335,0-.667v-.164h23.5v.435q0,.1,0,.2t0,.2a199.109,199.109,0,0,1-3.579,37.648A194.221,194.221,0,0,1-3319.021-1557c-1.968,4.933-4.172,9.847-6.55,14.607Z" transform="translate(3749 1890.041)" fill="#57b0e6"/>
  </g>
</svg>
